<?xml version="1.0" encoding="iso-8859-1"?>
<!-- Generator: Adobe Illustrator 19.0.0, SVG Export Plug-In . SVG Version: 6.00 Build 0)  -->
<svg version="1.1" id="Layer_1" xmlns="http://www.w3.org/2000/svg" xmlns:xlink="http://www.w3.org/1999/xlink" x="0px" y="0px"
	 viewBox="0 0 512.001 512.001" style="enable-background:new 0 0 512.001 512.001;" xml:space="preserve">
<g>
	<g>
		<path d="M180.306,96.956c3.402,18.711,18.711,32.319,37.422,32.319h22.113c18.711,0,44.226-15.309,44.226-37.422V49.329
			C284.068,22.113,255.15,0,227.935,0H86.751C61.236,0,44.226,18.711,44.226,49.329v413.342c0,28.917,17.01,49.329,40.824,49.329
			h142.884c27.216,0,56.133-20.412,56.133-49.329v-42.525c0-23.815-25.514-39.123-44.225-39.123h-22.113
			c-18.711,0-34.02,13.608-37.422,32.319h-39.123V96.956H180.306z M124.173,447.363h73.143c8.505,0,17.01-6.804,17.01-17.01v-11.907
			c0-1.701,1.701-3.402,3.402-3.402h22.113c3.402,0,8.505,3.402,10.206,5.103l-0.001,40.825c0,5.103-11.906,15.309-22.113,15.309
			H91.854h-1.701c-10.206,0-11.907-11.907-11.907-15.309V49.329c0-15.309,5.103-15.309,8.505-15.309h142.884
			c10.206,0,22.113,8.505,22.113,15.309v42.525c-1.701,1.701-6.804,5.103-10.206,5.103h-23.815c-1.701,0-3.402-1.701-3.402-3.402
			V81.648c0-8.505-8.505-17.01-17.01-17.01h-73.143c-10.206,0-17.01,6.804-17.01,17.01v348.705
			C107.163,440.559,113.967,447.363,124.173,447.363z"/>
	</g>
</g>
<g>
	<g>
		<path d="M455.868,227.934l-83.348-83.348c-13.608-13.608-39.123-13.608-52.731,0l-13.608,13.608
			c-6.804,6.804-10.206,17.01-10.206,25.515c0,6.804,1.701,15.309,6.804,20.412H204.12c-8.505,0-30.618,3.402-30.618,39.123v20.412
			c0,35.721,23.814,39.122,30.618,39.122h98.658c-10.206,15.309-8.505,34.02,5.103,47.628l13.608,13.608
			c6.804,6.804,17.01,10.206,25.515,10.206c10.206,0,20.412-3.402,27.216-10.206l83.349-83.348
			c6.804-6.804,10.206-17.01,10.206-27.216C466.074,244.944,462.672,236.438,455.868,227.934z M432.054,258.552L348.706,341.9
			c-1.701,1.701-3.402,1.701-5.103,0l-13.608-13.608c-1.701-1.701-1.701-3.402,0-5.103l25.515-23.814
			c5.103-5.103,6.804-11.907,3.402-18.711c-3.402-6.804-8.505-10.206-15.309-10.206h-136.08c0-1.701,0-3.402,0-5.103v-20.412
			c0-1.701,0-3.402,0-5.103h136.08c6.804,0,13.608-3.402,15.309-10.206c3.402-6.804,1.701-13.608-3.402-18.711l-27.216-23.814
			c-1.701-1.701-1.701-3.402,0-5.103l13.608-13.608c1.701-1.701,3.402-1.701,5.103,0l83.349,83.348
			c1.701,1.701,1.701,1.701,1.701,1.701C432.054,255.15,432.054,256.851,432.054,258.552z"/>
	</g>
</g>
<g>
</g>
<g>
</g>
<g>
</g>
<g>
</g>
<g>
</g>
<g>
</g>
<g>
</g>
<g>
</g>
<g>
</g>
<g>
</g>
<g>
</g>
<g>
</g>
<g>
</g>
<g>
</g>
<g>
</g>
</svg>
