<?xml version="1.0" encoding="iso-8859-1"?>
<!-- Generator: Adobe Illustrator 19.0.0, SVG Export Plug-In . SVG Version: 6.00 Build 0)  -->
<svg version="1.1" id="Layer_1" xmlns="http://www.w3.org/2000/svg" xmlns:xlink="http://www.w3.org/1999/xlink" x="0px" y="0px"
	 viewBox="0 0 512.001 512.001" style="enable-background:new 0 0 512.001 512.001;" xml:space="preserve">
<g>
	<g>
		<path d="M424.623,0H282.496c-27.398,0-51.371,22.26-51.371,49.659v42.81c0,22.26,20.549,37.672,41.097,37.672h22.26
			c18.837,0,34.247-13.699,37.672-32.536h44.522v316.789h-44.522c-3.425-18.837-18.837-32.535-37.672-32.535h-22.26
			c-18.837,0-41.097,15.411-41.097,37.672v42.81c0,25.686,23.973,49.658,51.371,49.658h142.127c27.398,0,47.946-22.26,47.946-49.658
			V49.659C474.282,22.26,452.021,0,424.623,0z M441.746,464.054h-1.712c0,8.562-6.849,15.411-13.699,15.411h-1.713H285.921
			c-8.562,0-17.124-6.849-17.124-15.411v-42.81c0-1.713,3.425-3.425,6.849-3.425h22.26c1.713,0,3.425,1.713,3.425,3.425v11.987
			c0,8.562,8.562,17.124,17.124,17.124h78.769c10.274,0,17.124-8.562,17.124-17.124V80.481c0-10.274-6.849-17.124-17.124-17.124
			h-78.769c-8.562,0-17.124,6.849-17.124,17.124v11.986c0,1.712-1.713,3.425-3.425,3.425h-22.26c-3.425,0-5.137-1.712-6.849-3.425
			V49.659c0-6.849,8.562-15.412,17.124-15.412h142.127c8.562,0,13.699,6.849,13.699,15.412V464.054z"/>
	</g>
</g>
<g>
	<g>
		<path d="M335.579,229.458l-83.906-83.906c-13.699-13.699-39.384-13.699-53.083,0l-13.699,13.699
			c-11.986,11.986-13.699,32.535-5.138,47.946H80.436c-20.548,0-41.097,18.837-41.097,39.385v20.548
			c0,20.548,18.836,39.384,41.097,39.384h99.318c-5.138,6.849-6.849,13.699-6.849,22.26c0,10.274,3.425,18.837,10.274,27.398
			l13.699,13.699c6.849,6.849,17.124,10.274,25.686,10.274c10.274,0,18.837-3.425,27.398-10.274l85.618-85.619
			c6.849-6.849,10.274-17.124,10.274-27.398S342.429,238.019,335.579,229.458z M311.606,256.854L227.7,340.76
			c-1.713,5.139-3.425,5.139-5.138,3.427l-13.699-13.699l-1.713-1.713v-1.713l25.686-23.973c5.137-5.137,6.849-11.987,3.425-18.837
			s-8.562-10.274-15.411-10.274H80.436c-1.712,0-5.138-3.425-6.849-5.137v-20.549c0-1.713,3.425-5.138,6.849-5.138h140.415
			c6.849,0,13.699-3.425,15.411-10.274c3.425-6.849,1.713-13.699-3.425-18.837l-23.973-25.686c-1.713-1.713-1.713-3.425,0-5.138
			l13.699-13.699c1.713-1.713,3.425-1.713,5.138,0l83.906,83.906l1.713,1.713C313.319,255.141,313.319,256.854,311.606,256.854z"/>
	</g>
</g>
<g>
</g>
<g>
</g>
<g>
</g>
<g>
</g>
<g>
</g>
<g>
</g>
<g>
</g>
<g>
</g>
<g>
</g>
<g>
</g>
<g>
</g>
<g>
</g>
<g>
</g>
<g>
</g>
<g>
</g>
</svg>
